<svg width="16" height="16" viewBox="0 0 16 16" fill="none" xmlns="http://www.w3.org/2000/svg">
<path fill-rule="evenodd" clip-rule="evenodd" d="M3.25 8.5C2.2835 8.5 1.5 9.2835 1.5 10.25L1.5 12.75C1.5 13.7165 2.2835 14.5 3.25 14.5H5.75C6.7165 14.5 7.5 13.7165 7.5 12.75V10.25C7.5 9.2835 6.7165 8.5 5.75 8.5H3.25ZM3 10.25C3 10.1119 3.11193 10 3.25 10H5.75C5.88807 10 6 10.1119 6 10.25L6 12.75C6 12.8881 5.88807 13 5.75 13H3.25C3.11193 13 3 12.8881 3 12.75L3 10.25Z" fill="#24292F"/>
<path fill-rule="evenodd" clip-rule="evenodd" d="M3.25 1.5C2.2835 1.5 1.5 2.2835 1.5 3.25L1.5 5.75C1.5 6.7165 2.2835 7.5 3.25 7.5H5.75C6.7165 7.5 7.5 6.7165 7.5 5.75L7.5 3.25C7.5 2.2835 6.7165 1.5 5.75 1.5L3.25 1.5ZM3 3.25C3 3.11193 3.11193 3 3.25 3L5.75 3C5.88807 3 6 3.11193 6 3.25V5.75C6 5.88807 5.88807 6 5.75 6L3.25 6C3.11193 6 3 5.88807 3 5.75L3 3.25Z" fill="#24292F"/>
<path fill-rule="evenodd" clip-rule="evenodd" d="M8.5 3.25C8.5 2.2835 9.2835 1.5 10.25 1.5L12.75 1.5C13.7165 1.5 14.5 2.2835 14.5 3.25V5.75C14.5 6.7165 13.7165 7.5 12.75 7.5L10.25 7.5C9.2835 7.5 8.5 6.7165 8.5 5.75L8.5 3.25ZM10.25 3C10.1119 3 10 3.11193 10 3.25V5.75C10 5.88807 10.1119 6 10.25 6H12.75C12.8881 6 13 5.88807 13 5.75V3.25C13 3.11193 12.8881 3 12.75 3L10.25 3Z" fill="#24292F"/>
<path fill-rule="evenodd" clip-rule="evenodd" d="M10.25 8.5C9.2835 8.5 8.5 9.2835 8.5 10.25V12.75C8.5 13.7165 9.2835 14.5 10.25 14.5H12.75C13.7165 14.5 14.5 13.7165 14.5 12.75V10.25C14.5 9.2835 13.7165 8.5 12.75 8.5L10.25 8.5ZM10 10.25C10 10.1119 10.1119 10 10.25 10H12.75C12.8881 10 13 10.1119 13 10.25V12.75C13 12.8881 12.8881 13 12.75 13H10.25C10.1119 13 10 12.8881 10 12.75L10 10.25Z" fill="#24292F"/>
</svg>
