<svg width="25" height="25" viewBox="0 0 20 20" fill="none" xmlns="http://www.w3.org/2000/svg">
<path fill-rule="evenodd" clip-rule="evenodd" d="M5.61366 2.08331C3.19078 2.08331 0.833252 4.20998 0.833252 7.09458C0.833252 10.2765 3.16776 12.9779 5.32393 14.8136C6.42116 15.7477 7.51528 16.4941 8.33361 17.0064C8.74342 17.263 9.0857 17.462 9.32678 17.5974C9.50766 17.699 9.63179 17.765 9.68515 17.793C9.78381 17.8443 9.88755 17.8772 9.99992 17.8772C10.0993 17.8772 10.1981 17.8532 10.2864 17.8077C10.4168 17.7405 10.5452 17.6692 10.6731 17.5974C10.9141 17.462 11.2564 17.263 11.6662 17.0064C12.4846 16.4941 13.5787 15.7477 14.6759 14.8136C16.8321 12.9779 19.1666 10.2765 19.1666 7.09458C19.1666 4.20998 16.8091 2.08331 14.3862 2.08331C12.4751 2.08331 10.9326 3.10516 9.99992 4.67067C9.06723 3.10516 7.52476 2.08331 5.61366 2.08331ZM5.61366 3.33331C3.88113 3.33331 2.08325 4.90034 2.08325 7.09458C2.08325 9.68405 4.01958 12.0615 6.13424 13.8618C7.17243 14.7456 8.21372 15.4566 8.99696 15.947C9.38793 16.1918 9.71297 16.3806 9.93901 16.5076L9.99992 16.5417L10.0608 16.5076C10.2869 16.3806 10.6119 16.1918 11.0029 15.947C11.7861 15.4566 12.8274 14.7456 13.8656 13.8618C15.9803 12.0615 17.9166 9.68405 17.9166 7.09458C17.9166 4.90034 16.1187 3.33331 14.3862 3.33331C12.6317 3.33331 11.2188 4.4908 10.5928 6.36879C10.5078 6.62401 10.2689 6.79615 9.99992 6.79615C9.7309 6.79615 9.49206 6.62401 9.40699 6.36879C8.78099 4.4908 7.36813 3.33331 5.61366 3.33331Z" fill="#24292F"/>
</svg>
