<svg width="143" height="31" viewBox="0 0 143 31" fill="none" xmlns="http://www.w3.org/2000/svg">
<path d="M9.5 30H0.522727V0.90909H9.89773C12.7197 0.90909 15.1345 1.49148 17.142 2.65625C19.1496 3.81155 20.6884 5.47348 21.7585 7.64205C22.8286 9.80114 23.3636 12.3864 23.3636 15.3977C23.3636 18.428 22.8239 21.0369 21.7443 23.2244C20.6648 25.4025 19.0928 27.0786 17.0284 28.2528C14.964 29.4176 12.4545 30 9.5 30ZM4.04545 26.875H9.27273C11.678 26.875 13.6714 26.411 15.2528 25.483C16.8343 24.5549 18.0133 23.2339 18.7898 21.5199C19.5663 19.8059 19.9545 17.7652 19.9545 15.3977C19.9545 13.0492 19.571 11.0275 18.804 9.33239C18.0369 7.62784 16.8911 6.32102 15.3665 5.41193C13.8419 4.49337 11.9432 4.03409 9.67045 4.03409H4.04545V26.875ZM29.2727 30V0.90909H46.8295V4.03409H32.7955V13.8636H45.9205V16.9886H32.7955V26.875H47.0568V30H29.2727ZM69.0881 8.18182C68.9176 6.74242 68.2263 5.625 67.0142 4.82955C65.8021 4.03409 64.3153 3.63636 62.554 3.63636C61.2661 3.63636 60.1392 3.8447 59.1733 4.26136C58.2169 4.67803 57.4688 5.25095 56.929 5.98011C56.3987 6.70928 56.1335 7.53788 56.1335 8.46591C56.1335 9.24242 56.3182 9.91004 56.6875 10.4688C57.0663 11.018 57.5492 11.4773 58.1364 11.8466C58.7235 12.2064 59.339 12.5047 59.983 12.7415C60.6269 12.9687 61.2188 13.1534 61.7585 13.2955L64.7131 14.0909C65.4706 14.2898 66.3134 14.5644 67.2415 14.9148C68.179 15.2652 69.0739 15.7434 69.9261 16.3494C70.7879 16.946 71.4981 17.7131 72.0568 18.6506C72.6155 19.5881 72.8949 20.7386 72.8949 22.1023C72.8949 23.6742 72.483 25.0947 71.6591 26.3636C70.8447 27.6326 69.6515 28.6411 68.0795 29.3892C66.517 30.1373 64.6184 30.5114 62.3835 30.5114C60.3002 30.5114 58.4962 30.1752 56.9716 29.5028C55.4564 28.8305 54.2633 27.893 53.392 26.6903C52.5303 25.4877 52.0426 24.0909 51.929 22.5H55.5653C55.66 23.5985 56.0294 24.5076 56.6733 25.2273C57.3267 25.9375 58.1506 26.4678 59.1449 26.8182C60.1487 27.1591 61.2282 27.3295 62.3835 27.3295C63.7282 27.3295 64.9356 27.1117 66.0057 26.6761C67.0758 26.2311 67.9233 25.6155 68.5483 24.8295C69.1733 24.0341 69.4858 23.1061 69.4858 22.0455C69.4858 21.0795 69.2159 20.2936 68.6761 19.6875C68.1364 19.0814 67.4261 18.589 66.5455 18.2102C65.6648 17.8314 64.7131 17.5 63.6903 17.2159L60.1108 16.1932C57.8381 15.5398 56.0388 14.607 54.7131 13.3949C53.3873 12.1828 52.7244 10.5966 52.7244 8.63636C52.7244 7.00757 53.1648 5.58712 54.0455 4.375C54.9356 3.15341 56.1288 2.20644 57.625 1.53409C59.1307 0.852272 60.8116 0.511363 62.6676 0.511363C64.5426 0.511363 66.2093 0.847537 67.6676 1.51989C69.1259 2.18276 70.2813 3.09185 71.1335 4.24716C71.9953 5.40246 72.4498 6.71401 72.4972 8.18182H69.0881ZM82.2095 0.90909V30H78.6868V0.90909H82.2095ZM109.159 10C108.847 9.04356 108.435 8.18655 107.923 7.42898C107.421 6.66193 106.82 6.00852 106.119 5.46875C105.428 4.92898 104.642 4.51704 103.761 4.23295C102.881 3.94886 101.915 3.80682 100.864 3.80682C99.1402 3.80682 97.5729 4.25189 96.1619 5.14205C94.7509 6.0322 93.6288 7.34375 92.7955 9.0767C91.9621 10.8097 91.5455 12.9356 91.5455 15.4545C91.5455 17.9735 91.9669 20.0994 92.8097 21.8324C93.6525 23.5653 94.7936 24.8769 96.233 25.767C97.6723 26.6572 99.2917 27.1023 101.091 27.1023C102.758 27.1023 104.225 26.7472 105.494 26.0369C106.773 25.3172 107.767 24.304 108.477 22.9972C109.197 21.6809 109.557 20.1326 109.557 18.3523L110.636 18.5795H101.886V15.4545H112.966V18.5795C112.966 20.9754 112.455 23.0587 111.432 24.8295C110.419 26.6004 109.017 27.9735 107.227 28.9489C105.447 29.9148 103.402 30.3977 101.091 30.3977C98.5152 30.3977 96.2519 29.7917 94.3011 28.5795C92.3598 27.3674 90.8447 25.6439 89.7557 23.4091C88.6761 21.1742 88.1364 18.5227 88.1364 15.4545C88.1364 13.1534 88.4441 11.0843 89.0597 9.24716C89.6847 7.40057 90.5653 5.8286 91.7017 4.53125C92.8381 3.2339 94.1828 2.23958 95.7358 1.5483C97.2888 0.857007 98.9981 0.511363 100.864 0.511363C102.398 0.511363 103.828 0.74337 105.153 1.20739C106.489 1.66193 107.677 2.3106 108.719 3.15341C109.77 3.98674 110.646 4.98579 111.347 6.15057C112.047 7.30587 112.53 8.58902 112.795 10H109.159ZM142.067 0.90909V30H138.658L122.806 7.15909H122.522V30H118.999V0.90909H122.408L138.317 23.8068H138.602V0.90909H142.067Z" fill="#101010"/>
</svg>
