<svg width="20" height="20" viewBox="0 0 16 18" fill="none" xmlns="http://www.w3.org/2000/svg">
<path d="M1 11.69H15M8 0.690002C9.45869 0.690002 10.8576 1.26947 11.8891 2.30092C12.9205 3.33237 13.5 4.73131 13.5 6.19V11.69H2.5V6.19C2.5 4.73131 3.07946 3.33237 4.11091 2.30092C5.14236 1.26947 6.54131 0.690002 8 0.690002ZM10 15.31C10 16.4146 9.10457 17.31 8 17.31C6.89543 17.31 6 16.4146 6 15.31C6 14.2054 6.89543 13.31 8 13.31C9.10457 13.31 10 14.2054 10 15.31Z" stroke="#1C1C1E" stroke-linecap="round" stroke-linejoin="round"/>
</svg>
