<svg width="25" height="25" viewBox="0 0 25 25" fill="none" xmlns="http://www.w3.org/2000/svg">
<path fill-rule="evenodd" clip-rule="evenodd" d="M12.5001 2.60419C9.33604 2.60419 6.77105 5.16923 6.77105 8.33335C6.77105 10.3015 7.76351 12.0379 9.27529 13.0694C5.77054 14.3532 3.24598 17.6697 3.12926 21.5914C3.11642 22.0226 3.45564 22.3827 3.88692 22.3955C4.3182 22.4083 4.67823 22.0691 4.69107 21.6378C4.81621 17.4331 8.26465 14.0625 12.5 14.0625C16.7354 14.0625 20.1839 17.4331 20.309 21.6378C20.3219 22.0691 20.6819 22.4083 21.1132 22.3955C21.5444 22.3827 21.8837 22.0226 21.8708 21.5914C21.7541 17.6698 19.2296 14.3533 15.7249 13.0694C17.2367 12.038 18.2292 10.3016 18.2292 8.33335C18.2292 5.16923 15.6642 2.60419 12.5001 2.60419ZM8.33355 8.33335C8.33355 6.03216 10.199 4.16669 12.5001 4.16669C14.8013 4.16669 16.6667 6.03216 16.6667 8.33335C16.6667 10.6346 14.8013 12.5 12.5001 12.5C10.199 12.5 8.33355 10.6346 8.33355 8.33335Z" fill="#24292F"/>
</svg>
