<svg xmlns="http://www.w3.org/2000/svg" width="16" height="16" fill="none" viewBox="0 0 16 16"><path fill="#24292F" fill-rule="evenodd" d="M11.5 7.00002C11.5 7.59096 11.3836 8.17613 11.1574 8.72209C10.9313 9.26806 10.5998 9.76413 10.182 10.182C9.76413 10.5998 9.26806 10.9313 8.72209 11.1575C8.17613 11.3836 7.59097 11.5 7.00002 11.5C6.40907 11.5 5.82391 11.3836 5.27794 11.1575C4.73198 10.9313 4.2359 10.5998 3.81804 10.182C3.40017 9.76413 3.06871 9.26806 2.84256 8.72209C2.61641 8.17613 2.50002 7.59096 2.50002 7.00002C2.50002 5.80654 2.97412 4.66195 3.81804 3.81804C4.66195 2.97412 5.80654 2.50002 7.00002 2.50002C8.19349 2.50002 9.33808 2.97412 10.182 3.81804C11.0259 4.66195 11.5 5.80654 11.5 7.00002ZM10.68 11.74C9.4744 12.676 7.95739 13.1173 6.43782 12.9741C4.91825 12.831 3.51036 12.1141 2.50077 10.9694C1.49117 9.82473 0.955774 8.33831 1.00355 6.81277C1.05134 5.28722 1.67872 3.83722 2.75797 2.75797C3.83723 1.67872 5.28722 1.05134 6.81277 1.00355C8.33832 0.955771 9.82473 1.49117 10.9694 2.50077C12.1141 3.51036 12.831 4.91825 12.9741 6.43782C13.1173 7.95738 12.676 9.47439 11.74 10.68L14.78 13.72C14.8537 13.7887 14.9128 13.8715 14.9538 13.9635C14.9948 14.0555 15.0168 14.1548 15.0186 14.2555C15.0204 14.3562 15.0018 14.4562 14.9641 14.5496C14.9264 14.643 14.8702 14.7278 14.799 14.799C14.7278 14.8703 14.643 14.9264 14.5496 14.9641C14.4562 15.0018 14.3562 15.0204 14.2555 15.0186C14.1548 15.0168 14.0554 14.9948 13.9635 14.9538C13.8715 14.9128 13.7887 14.8537 13.72 14.78L10.68 11.74Z" clip-rule="evenodd"/></svg>